<svg xmlns="http://www.w3.org/2000/svg" width="2400" height="1182" style="cursor: move;"><g transform="translate(-1289.3550217193288,-612.8966436335743) scale(2.067661472495931)"><path class="link" marker-end="" d="M1040,581, 1220,561" style="stroke-width: 0.5; stroke-opacity: 1; stroke: rgb(80, 80, 80); opacity: 1;"></path><path class="link" marker-end="" d="M1040,581, 1220,601" style="stroke-width: 0.5; stroke-opacity: 1; stroke: rgb(80, 80, 80); opacity: 1;"></path><path class="link" marker-end="" d="M1040,581, 1220,641" style="stroke-width: 0.5; stroke-opacity: 1; stroke: rgb(80, 80, 80); opacity: 1;"></path><path class="link" marker-end="" d="M1220,521, 1400,581" style="stroke-width: 0.5; stroke-opacity: 1; stroke: rgb(80, 80, 80); opacity: 1;"></path><path class="link" marker-end="" d="M1220,561, 1400,581" style="stroke-width: 0.5; stroke-opacity: 1; stroke: rgb(80, 80, 80); opacity: 1;"></path><path class="link" marker-end="" d="M1220,601, 1400,581" style="stroke-width: 0.5; stroke-opacity: 1; stroke: rgb(80, 80, 80); opacity: 1;"></path><path class="link" marker-end="" d="M1220,641, 1400,581" style="stroke-width: 0.5; stroke-opacity: 1; stroke: rgb(80, 80, 80); opacity: 1;"></path><path class="link" marker-end="" d="M1040,581, 1220,521" style="stroke-width: 0.5; stroke-opacity: 1; stroke: rgb(80, 80, 80); opacity: 1;"></path><circle r="10" class="node" id="0_0" cx="1040" cy="581" style="fill: rgb(255, 255, 255); stroke: rgb(51, 51, 51); opacity: 1;"></circle><circle r="10" class="node" id="1_0" cx="1220" cy="521" style="fill: rgb(255, 255, 255); stroke: rgb(51, 51, 51); opacity: 1;"></circle><text class="text" dy=".35em" x="1005" y="681" style="font-size: 12px;">Input Layer ∈ ℝ¹</text><text class="text" dy=".35em" x="1185" y="681" style="font-size: 12px;">Hidden Layer ∈ ℝ⁴</text><circle r="10" class="node" id="1_1" cx="1220" cy="561" style="fill: rgb(255, 255, 255); stroke: rgb(51, 51, 51); opacity: 1;"></circle><circle r="10" class="node" id="1_2" cx="1220" cy="601" style="fill: rgb(255, 255, 255); stroke: rgb(51, 51, 51); opacity: 1;"></circle><circle r="10" class="node" id="1_3" cx="1220" cy="641" style="fill: rgb(255, 255, 255); stroke: rgb(51, 51, 51); opacity: 1;"></circle><circle r="10" class="node" id="2_0" cx="1400" cy="581" style="fill: rgb(255, 255, 255); stroke: rgb(51, 51, 51); opacity: 1;"></circle><text class="text" dy=".35em" x="1365" y="681" style="font-size: 12px;">Output Layer ∈ ℝ¹</text></g><defs><marker id="arrow" viewBox="0 -5 10 10" markerWidth="7" markerHeight="7" orient="auto" refX="40"><path d="M0,-5L10,0L0,5" style="stroke: rgb(80, 80, 80); fill: none;"></path></marker></defs></svg>